<!-- Generated by IcoMoon.io -->
<svg version="1.1" xmlns="http://www.w3.org/2000/svg" width="32" height="32" viewBox="0 0 32 32">
<path fill="#fbfbfb" d="M21.179 4h-11.692c-1.808 0.002-3.542 0.721-4.821 2s-1.998 3.012-2 4.821v11.692c0.002 1.808 0.721 3.542 2 4.821s3.012 1.998 4.821 2h11.692c1.808-0.002 3.542-0.721 4.821-2s1.998-3.012 2-4.821v-11.692c-0.002-1.808-0.721-3.542-2-4.821s-3.012-1.998-4.821-2zM15.333 22.513c-1.156 0-2.287-0.343-3.248-0.985s-1.711-1.555-2.153-2.624c-0.442-1.068-0.558-2.244-0.333-3.378s0.782-2.176 1.6-2.993c0.818-0.818 1.859-1.374 2.993-1.6s2.309-0.11 3.378 0.333 1.981 1.192 2.624 2.153c0.642 0.961 0.985 2.092 0.985 3.248-0.002 1.55-0.618 3.036-1.714 4.132s-2.582 1.712-4.132 1.714zM22.641 10.82c-0.289 0-0.572-0.086-0.812-0.246s-0.428-0.389-0.538-0.656c-0.111-0.267-0.14-0.561-0.083-0.844s0.196-0.544 0.4-0.748c0.204-0.204 0.465-0.344 0.748-0.4s0.577-0.027 0.844 0.083c0.267 0.111 0.495 0.298 0.656 0.538s0.246 0.523 0.246 0.812c0 0.388-0.154 0.759-0.428 1.033s-0.646 0.428-1.033 0.428zM19.231 16.667c0 0.771-0.229 1.524-0.657 2.165s-1.037 1.14-1.749 1.435c-0.712 0.295-1.496 0.372-2.252 0.222s-1.45-0.522-1.995-1.067-0.916-1.239-1.067-1.995c-0.15-0.756-0.073-1.54 0.222-2.252s0.795-1.321 1.435-1.749c0.641-0.428 1.395-0.657 2.165-0.657 1.034 0 2.025 0.411 2.756 1.142s1.142 1.722 1.142 2.756z"></path>
</svg>
