<!-- Generated by IcoMoon.io -->
<svg version="1.1" xmlns="http://www.w3.org/2000/svg" width="32" height="32" viewBox="0 0 32 32">
<path fill="#fbfbfb" d="M18.226 15.768l-3.119-1.455c-0.272-0.126-0.496 0.015-0.496 0.317v2.742c0 0.301 0.224 0.443 0.496 0.317l3.118-1.455c0.274-0.128 0.274-0.336 0.001-0.464zM16 2.667c-7.364 0-13.333 5.969-13.333 13.333s5.969 13.333 13.333 13.333c7.364 0 13.333-5.969 13.333-13.333s-5.969-13.333-13.333-13.333zM16 21.417c-6.825 0-6.944-0.615-6.944-5.417s0.119-5.417 6.944-5.417c6.825 0 6.944 0.615 6.944 5.417s-0.119 5.417-6.944 5.417z"></path>
</svg>
